<?xml version="1.0" standalone="no"?>
<!DOCTYPE svg PUBLIC "-//W3C//DTD SVG 20010904//EN"
 "http://www.w3.org/TR/2001/REC-SVG-20010904/DTD/svg10.dtd">
<svg version="1.0" xmlns="http://www.w3.org/2000/svg"
 width="2461.000000pt" height="2461.000000pt" viewBox="0 0 2461.000000 2461.000000"
 preserveAspectRatio="xMidYMid meet">
<metadata>
Created by potrace 1.11, written by Peter Selinger 2001-2013
</metadata>
<g transform="translate(0.000000,2461.000000) scale(0.100000,-0.100000)"
fill="#000000" stroke="none">
<path d="M9240 21637 c-3 -3 -50 -8 -105 -11 -55 -4 -109 -9 -120 -11 -11 -2
-42 -7 -70 -10 -43 -5 -106 -15 -187 -29 -290 -52 -692 -193 -928 -325 -30
-17 -66 -37 -80 -44 -27 -13 -46 -25 -155 -96 -64 -42 -173 -119 -185 -131 -3
-3 -38 -32 -79 -64 -83 -67 -240 -218 -324 -314 -256 -290 -473 -683 -575
-1043 -31 -108 -58 -219 -67 -278 -3 -19 -7 -37 -9 -40 -2 -3 -7 -33 -11 -66
-4 -33 -9 -71 -10 -85 -26 -182 -21 -566 10 -790 3 -19 8 -53 11 -75 4 -35 10
-69 30 -175 7 -37 43 -190 54 -230 165 -589 468 -1125 919 -1625 55 -61 318
-323 385 -384 l48 -44 -30 -13 c-50 -21 -518 -173 -672 -219 -186 -55 -265
-77 -265 -75 0 1 -13 -3 -28 -9 -61 -24 -781 -212 -937 -246 -21 -5 -203 -46
-215 -49 -5 -2 -21 -6 -35 -9 -14 -4 -36 -9 -50 -11 -14 -2 -68 -14 -120 -26
-132 -30 -130 -30 -180 -40 -25 -5 -88 -18 -140 -29 -92 -20 -120 -25 -177
-36 -16 -3 -48 -10 -73 -15 -25 -5 -56 -12 -70 -14 -22 -4 -72 -14 -150 -31
-13 -2 -42 -7 -64 -11 -22 -3 -43 -7 -46 -9 -3 -2 -23 -6 -45 -9 -22 -4 -56
-9 -75 -13 -19 -4 -38 -7 -42 -8 -22 -1 -10 -18 131 -189 46 -55 98 -119 116
-141 18 -22 102 -123 187 -225 84 -102 191 -232 238 -290 47 -58 95 -116 107
-130 39 -45 57 -67 168 -204 120 -148 104 -138 190 -121 32 7 572 144 675 172
622 167 873 240 1375 403 497 161 1072 376 1390 520 78 35 165 70 173 70 5 0
43 -21 84 -47 91 -58 84 -55 238 -146 113 -68 177 -104 365 -207 388 -214
1107 -538 1565 -707 52 -19 109 -41 125 -48 75 -32 686 -242 880 -302 126 -39
279 -85 290 -88 6 -1 17 -5 25 -8 8 -3 74 -22 145 -42 72 -20 136 -40 144 -44
17 -9 22 -67 7 -85 -9 -11 -278 -160 -551 -306 -33 -18 -73 -40 -90 -50 -16
-9 -64 -36 -105 -58 -67 -35 -809 -441 -950 -519 -30 -17 -156 -86 -280 -153
-124 -67 -250 -136 -280 -153 -30 -17 -73 -40 -95 -52 -43 -24 -236 -129 -325
-177 -30 -17 -77 -43 -105 -58 -176 -97 -218 -120 -220 -120 -2 0 -42 -23 -90
-50 -48 -27 -88 -50 -91 -50 -2 0 -43 -22 -91 -49 -121 -67 -167 -92 -248
-136 -130 -70 -470 -256 -485 -265 -8 -5 -37 -21 -65 -36 -27 -15 -138 -75
-245 -134 -107 -59 -231 -126 -275 -150 -44 -23 -93 -50 -110 -60 -16 -9 -60
-34 -97 -54 -79 -43 -88 -23 77 -172 60 -54 116 -106 125 -114 9 -8 58 -54
110 -102 52 -47 109 -99 125 -115 17 -15 58 -53 91 -83 33 -30 105 -95 159
-145 54 -49 107 -98 118 -108 11 -9 66 -59 121 -110 56 -52 136 -126 179 -165
l78 -72 27 19 c29 21 309 200 402 258 30 19 120 76 200 126 80 51 363 232 630
401 267 170 508 323 535 341 28 18 349 222 715 455 366 232 698 444 738 471
40 27 75 49 78 49 3 0 20 10 37 23 17 12 40 27 50 32 9 6 77 48 150 94 72 47
195 125 272 174 77 49 156 100 175 112 19 13 211 134 425 271 215 136 424 269
465 295 364 233 371 237 413 235 l41 -1 0 -2100 c1 -1155 0 -2109 -2 -2120 -3
-18 -17 -23 -100 -38 -159 -27 -218 -41 -377 -88 -480 -142 -915 -381 -1290
-709 -71 -61 -329 -323 -380 -385 -28 -33 -60 -71 -72 -85 -23 -24 -30 -50
-15 -50 4 0 23 -15 42 -33 19 -18 60 -52 90 -77 30 -24 64 -52 75 -62 11 -9
70 -58 130 -109 61 -50 130 -108 155 -129 108 -91 381 -318 420 -350 24 -19
48 -40 54 -45 32 -31 161 -135 165 -134 3 0 32 37 63 82 161 231 390 443 628
581 151 87 386 180 530 210 132 27 192 37 240 41 30 3 71 8 90 11 42 6 321 6
370 0 19 -3 55 -7 80 -10 43 -6 166 -32 257 -55 23 -6 76 -24 118 -41 480
-191 804 -558 944 -1070 11 -41 23 -93 26 -115 3 -22 7 -49 10 -60 9 -43 19
-184 18 -270 -1 -415 -108 -778 -319 -1082 -232 -333 -589 -587 -1039 -739
-75 -25 -285 -80 -338 -89 -18 -3 -45 -8 -62 -12 -16 -4 -34 -7 -40 -8 -5 0
-32 -4 -60 -8 -179 -27 -250 -31 -535 -32 -242 0 -410 7 -490 19 -14 3 -56 7
-95 11 -38 4 -72 8 -75 10 -3 2 -27 6 -55 9 -65 7 -136 20 -260 46 -55 11
-111 23 -125 26 -232 47 -642 185 -930 310 -303 133 -710 365 -1009 577 -138
97 -100 68 -311 235 -307 242 -662 575 -924 867 -54 61 -113 126 -130 145 -42
46 -274 327 -306 370 -14 18 -43 56 -65 84 -66 82 -175 231 -275 373 -51 73
-96 133 -101 133 -5 0 -17 -8 -27 -18 -10 -9 -53 -48 -97 -87 -43 -38 -90 -81
-105 -95 -14 -14 -44 -40 -66 -59 -21 -19 -79 -70 -128 -115 -49 -45 -98 -89
-110 -99 -12 -10 -32 -28 -46 -41 -14 -12 -52 -46 -85 -76 -109 -97 -218 -195
-235 -210 -38 -35 -231 -208 -277 -248 -28 -24 -28 -31 -4 -62 24 -31 151
-191 194 -245 100 -124 278 -334 396 -464 248 -274 610 -634 821 -817 25 -21
50 -43 56 -49 310 -276 801 -639 1186 -877 306 -188 797 -435 1123 -563 39
-15 79 -31 90 -36 30 -13 207 -76 320 -114 185 -62 577 -168 698 -189 15 -3
35 -7 45 -10 9 -3 28 -7 42 -10 14 -2 63 -11 110 -20 112 -20 207 -36 320 -51
25 -4 59 -8 75 -10 44 -6 163 -19 295 -30 117 -11 355 -19 550 -19 299 0 538
12 745 39 17 2 53 7 80 10 58 7 109 14 145 21 14 2 41 7 60 10 55 9 228 43
300 60 123 28 372 104 500 151 102 37 272 108 305 126 11 6 52 26 90 45 393
193 720 444 1032 792 72 80 236 306 300 412 81 135 192 358 237 478 20 52 41
106 47 120 32 74 127 441 143 550 2 19 8 58 12 85 3 28 8 59 10 70 18 94 26
544 12 700 -43 489 -190 941 -433 1334 -49 80 -157 231 -190 267 -5 6 -30 36
-55 65 -82 99 -283 292 -375 362 -5 4 -32 25 -60 46 -119 91 -345 231 -470
290 -44 21 -165 76 -220 101 -61 27 -277 98 -410 134 -33 9 -71 20 -85 24
l-24 7 -1 5880 c-1 3234 1 5885 3 5892 3 10 271 12 1205 12 661 0 1227 1 1258
1 l56 0 0 665 0 665 -26 1 c-206 4 -4044 -1 -4049 -6 -4 -4 -7 -1676 -8 -3716
0 -2040 -2 -3711 -5 -3713 -4 -4 -516 122 -639 157 -30 9 -145 41 -255 72
-496 140 -1202 374 -1602 531 -38 14 -108 42 -158 61 -49 19 -103 41 -120 48
-16 8 -82 35 -145 60 -63 26 -128 53 -145 60 -16 7 -84 37 -150 66 -420 182
-1033 488 -1020 509 3 5 40 30 83 56 42 27 88 56 102 66 14 11 86 62 160 115
114 81 255 191 359 278 212 179 456 432 626 650 364 467 605 1032 670 1574 4
30 8 61 10 70 7 41 19 258 18 366 0 114 -12 354 -18 365 -1 3 -6 37 -9 75 -4
39 -9 77 -11 85 -2 8 -7 30 -10 48 -3 17 -7 47 -10 65 -3 17 -22 93 -41 167
-186 711 -618 1287 -1254 1670 -185 112 -424 219 -640 288 -100 32 -269 77
-330 87 -19 3 -54 10 -77 15 -23 6 -61 12 -85 15 -24 3 -54 7 -68 10 -14 3
-52 8 -85 11 -33 3 -71 8 -85 11 -32 6 -554 16 -560 10z m430 -1342 c19 -3 52
-7 73 -10 195 -25 463 -131 617 -243 88 -64 116 -88 185 -157 183 -181 303
-396 375 -670 16 -60 31 -128 35 -150 3 -22 8 -53 10 -70 15 -92 22 -382 11
-445 -2 -14 -7 -54 -11 -90 -12 -131 -56 -309 -112 -459 -142 -384 -439 -767
-838 -1081 -49 -39 -97 -77 -107 -85 -49 -40 -341 -233 -436 -287 -228 -131
-317 -176 -332 -168 -62 33 -449 402 -561 535 -19 22 -40 47 -48 55 -32 33
-161 200 -213 275 -237 342 -396 728 -453 1100 -35 222 -34 556 0 715 9 42 16
74 21 99 7 35 62 199 82 246 118 277 323 512 582 666 209 126 467 206 720 226
41 3 76 7 78 8 5 4 285 -4 322 -10z"/>
</g>
</svg>
