<?xml version="1.0" standalone="no"?>
<!DOCTYPE svg PUBLIC "-//W3C//DTD SVG 20010904//EN"
 "http://www.w3.org/TR/2001/REC-SVG-20010904/DTD/svg10.dtd">
<svg version="1.0" xmlns="http://www.w3.org/2000/svg"
 width="1352.000000pt" height="1352.000000pt" viewBox="0 0 1352.000000 1352.000000"
 preserveAspectRatio="xMidYMid meet">
<metadata>
Created by potrace 1.11, written by Peter Selinger 2001-2013
</metadata>
<g transform="translate(0.000000,1352.000000) scale(0.100000,-0.100000)"
fill="#000000" stroke="none">
<path d="M5097 12714 c-1 -1 -47 -4 -102 -7 -55 -4 -116 -8 -135 -11 -19 -3
-57 -8 -85 -11 -27 -4 -66 -11 -85 -15 -19 -5 -46 -11 -60 -14 -259 -46 -579
-191 -816 -367 -353 -263 -593 -636 -690 -1074 -22 -97 -32 -230 -29 -385 2
-96 6 -188 9 -205 4 -27 18 -127 18 -132 0 -2 16 -73 43 -187 38 -161 164
-441 273 -604 20 -31 42 -63 47 -72 57 -93 278 -331 392 -422 23 -18 42 -35
42 -38 2 -12 -165 -69 -434 -149 -155 -47 -211 -63 -400 -116 -96 -27 -795
-200 -1030 -255 -77 -18 -142 -34 -144 -36 -4 -4 70 -98 145 -183 18 -20 67
-79 110 -132 88 -107 165 -199 229 -274 38 -45 152 -181 253 -304 21 -25 42
-49 47 -55 6 -6 43 -50 83 -98 40 -49 76 -88 79 -88 8 0 448 128 483 140 14 5
79 25 145 46 309 94 775 254 920 316 39 16 72 29 75 30 3 0 20 6 39 14 18 8
36 14 40 14 3 1 24 9 46 20 22 11 43 19 47 20 10 0 282 122 375 168 l82 40
263 -132 c296 -148 487 -232 793 -346 166 -62 597 -206 745 -249 17 -5 26 -16
28 -33 3 -24 -15 -36 -250 -171 -139 -79 -282 -161 -318 -181 -36 -20 -72 -41
-80 -46 -19 -12 -174 -101 -224 -129 -21 -12 -241 -138 -490 -280 -248 -142
-466 -267 -485 -277 -18 -11 -41 -23 -50 -29 -9 -5 -204 -117 -433 -249 l-418
-238 33 -30 c91 -85 126 -116 287 -263 96 -88 180 -164 186 -170 19 -18 179
-163 204 -185 23 -20 192 -174 251 -230 27 -25 57 -53 136 -123 l42 -38 68 49
c37 26 118 82 178 124 61 41 279 192 485 336 206 143 425 295 485 337 61 42
237 165 392 273 156 108 322 224 370 257 48 33 184 128 302 210 119 83 254
177 301 209 47 33 149 104 227 158 89 62 151 98 167 98 l26 0 -2 -1152 -3
-1153 -70 -18 c-38 -10 -78 -20 -87 -22 -61 -13 -252 -86 -353 -134 -222 -106
-404 -234 -582 -409 -98 -97 -204 -212 -211 -231 -3 -8 42 -51 168 -161 71
-63 239 -211 310 -274 19 -17 127 -112 240 -211 113 -99 211 -187 217 -195 14
-17 25 -7 93 87 104 142 258 271 407 340 164 75 396 109 581 85 482 -65 755
-495 638 -1002 -92 -396 -468 -672 -992 -727 -154 -16 -450 -8 -614 18 -69 10
-76 12 -171 29 -239 44 -584 174 -850 320 -82 45 -323 200 -368 236 -9 7 -63
50 -121 95 -104 82 -133 107 -239 204 -107 99 -275 272 -396 409 -45 51 -85
98 -112 131 -126 160 -170 217 -234 305 -40 55 -76 99 -80 98 -4 -2 -56 -48
-116 -104 -59 -55 -135 -126 -168 -156 -33 -31 -76 -71 -96 -89 -72 -67 -255
-237 -280 -260 -42 -38 -237 -219 -302 -279 l-59 -56 53 -65 c272 -328 684
-726 986 -950 32 -24 60 -47 63 -50 12 -15 297 -209 410 -278 497 -309 1030
-524 1575 -635 66 -14 140 -28 165 -31 25 -3 52 -8 60 -10 23 -7 69 -13 145
-21 39 -3 79 -8 90 -10 131 -26 784 -25 960 1 17 2 48 7 70 9 347 42 755 167
1005 308 30 17 71 40 90 51 178 99 426 316 567 497 206 265 357 620 398 945 4
28 9 61 12 75 13 58 11 419 -3 519 -37 285 -113 514 -244 736 -219 370 -595
667 -1027 810 -46 15 -83 30 -84 34 -4 27 -3 6825 2 6832 3 5 301 10 694 11
l689 3 1 560 c0 308 -1 566 -3 573 -3 9 -295 12 -1413 12 l-1409 0 0 -2160 c0
-1758 -2 -2160 -13 -2160 -7 0 -67 15 -132 34 -66 18 -133 37 -150 41 -44 12
-45 12 -50 15 -3 1 -8 3 -12 4 -13 3 -153 46 -273 83 -63 20 -119 38 -125 39
-5 1 -57 18 -115 38 -58 20 -150 52 -205 71 -257 87 -717 272 -940 378 l-89
43 39 24 c108 67 246 181 375 310 194 194 332 396 441 643 49 111 111 301 125
387 3 14 11 61 19 105 26 143 34 352 20 510 -68 796 -631 1432 -1456 1643
-161 41 -226 52 -399 68 -69 6 -288 12 -293 8z m293 -1143 c19 -5 46 -13 60
-16 154 -41 314 -176 388 -326 64 -131 85 -231 86 -399 0 -181 -27 -297 -110
-465 -125 -253 -356 -472 -698 -659 -54 -30 -58 -29 -129 33 -256 219 -403
411 -498 647 -100 248 -112 531 -34 740 114 303 387 467 765 458 74 -1 151 -7
170 -13z"/>
</g>
</svg>
