<?xml version="1.0" standalone="no"?>
<!DOCTYPE svg PUBLIC "-//W3C//DTD SVG 20010904//EN"
 "http://www.w3.org/TR/2001/REC-SVG-20010904/DTD/svg10.dtd">
<svg version="1.0" xmlns="http://www.w3.org/2000/svg"
 width="512.000000pt" height="512.000000pt" viewBox="0 0 512.000000 512.000000"
 preserveAspectRatio="xMidYMid meet">
<metadata>
Created by potrace 1.11, written by Peter Selinger 2001-2013
</metadata>
<g transform="translate(0.000000,512.000000) scale(0.100000,-0.100000)"
fill="#000000" stroke="none">
<path d="M3753 5056 c-23 -8 -45 -11 -48 -8 -3 3 -5 0 -5 -7 0 -7 -4 -9 -10
-6 -5 3 -16 3 -22 -2 -7 -4 -17 -8 -23 -9 -5 -1 -32 -11 -58 -23 -88 -38 -180
-150 -257 -315 -16 -36 -30 -68 -30 -71 0 -8 -28 -36 -35 -35 -16 1 -107 -54
-135 -82 -18 -18 -48 -65 -67 -104 -31 -67 -36 -73 -71 -78 -52 -9 -193 -28
-302 -41 -19 -2 -51 -7 -70 -10 -19 -3 -53 -8 -75 -11 -54 -7 -80 -11 -80 -13
0 -1 -27 -4 -60 -7 -33 -2 -67 -7 -75 -11 -8 -3 -23 -5 -33 -4 -13 2 -18 -3
-15 -16 2 -13 24 -24 87 -40 47 -12 88 -20 92 -18 4 3 9 1 11 -4 1 -5 17 -11
35 -14 17 -3 36 -8 41 -11 4 -3 22 -8 38 -11 16 -3 40 -8 54 -11 13 -3 27 -8
30 -12 3 -4 16 -8 30 -10 59 -6 50 -16 -30 -33 -47 -10 -117 -26 -157 -34 -54
-12 -71 -20 -67 -30 3 -8 9 -14 12 -13 9 2 64 -13 77 -21 6 -3 16 -6 24 -8 8
-1 68 -21 134 -44 122 -43 129 -51 52 -62 -14 -2 -26 -6 -26 -10 0 -11 24 -32
36 -32 21 -1 155 -47 155 -54 0 -4 -22 -13 -49 -19 -63 -14 -161 -59 -161 -74
0 -6 -3 -8 -6 -5 -17 16 -153 -106 -294 -262 -41 -46 -82 -91 -91 -100 -70
-73 -179 -236 -194 -293 -2 -5 -4 -9 -5 -10 -1 -2 -4 -23 -5 -48 -1 -25 -4
-45 -5 -45 -1 0 -4 -18 -6 -40 -5 -66 -10 -87 -38 -152 -32 -75 -32 -81 -4
-110 24 -26 33 -109 12 -121 -26 -15 -151 -259 -146 -284 1 -5 -1 -8 -6 -8 -4
0 -7 -14 -7 -32 0 -31 -2 -32 -40 -34 -22 0 -44 2 -50 6 -5 4 -30 5 -55 3
-124 -9 -157 -12 -178 -17 -12 -4 -30 -8 -40 -10 -72 -18 -124 -41 -192 -86
-82 -54 -109 -90 -130 -177 -19 -77 -34 -86 -151 -93 -95 -5 -108 -8 -149 -37
-49 -34 -102 -95 -159 -189 -34 -54 -41 -60 -67 -57 -55 6 -69 9 -79 14 -12 7
-131 4 -161 -4 -36 -9 -168 -78 -193 -101 -13 -11 -38 -43 -57 -71 -19 -27
-52 -72 -73 -99 -22 -28 -38 -53 -35 -58 3 -4 0 -8 -7 -8 -7 0 -10 -3 -7 -6 4
-3 0 -20 -7 -37 -12 -30 -12 -63 0 -96 4 -11 11 -10 33 5 15 9 34 24 42 33 32
34 62 42 153 42 104 1 120 -5 224 -74 83 -56 116 -67 195 -67 31 0 68 -4 82
-9 25 -10 34 -17 113 -84 79 -66 80 -67 309 -80 6 0 18 -14 26 -31 42 -87 58
-128 53 -137 -4 -5 -2 -9 4 -9 5 0 8 -9 6 -20 -2 -11 0 -20 6 -20 5 0 9 -6 9
-14 0 -27 123 -143 185 -174 70 -35 171 -65 191 -58 8 3 14 1 14 -4 0 -5 8 -9
18 -9 9 0 58 -3 107 -6 105 -8 94 -8 170 -2 59 5 135 26 187 53 50 26 73 18
115 -37 47 -62 128 -147 168 -175 17 -11 57 -31 90 -45 51 -20 76 -24 170 -24
135 0 210 9 232 26 9 8 17 13 17 11 1 -2 15 2 31 9 17 7 33 13 38 14 4 2 8 3
10 5 1 1 21 2 43 3 40 2 114 -20 114 -33 0 -8 9 -9 85 -10 52 0 110 5 110 10
0 2 35 9 75 14 68 10 105 18 116 27 6 5 14 6 17 2 4 -3 7 0 7 7 0 7 3 11 6 7
16 -15 151 68 217 134 l68 69 59 -15 c97 -25 154 -26 228 -4 37 11 76 24 87
29 48 22 101 43 114 46 67 14 314 247 303 287 -1 4 2 7 7 7 8 0 23 50 35 116
10 50 40 95 118 174 120 122 138 166 143 355 3 121 -23 217 -79 295 -20 27
-36 54 -36 59 0 14 -86 101 -93 94 -4 -3 -7 -1 -7 5 0 7 -9 12 -19 12 -10 0
-21 7 -24 14 -6 16 -154 90 -202 102 -18 4 -57 34 -97 76 -37 37 -75 68 -86
68 -11 0 -44 13 -74 29 -31 17 -58 27 -62 24 -3 -4 -6 -1 -6 6 0 7 -4 10 -9 7
-5 -3 -28 0 -52 7 -56 15 -197 12 -226 -6 -13 -8 -24 31 -28 107 -6 93 -19
123 -95 214 -29 35 -46 63 -40 67 6 3 8 10 5 15 -3 5 -2 11 3 14 10 6 9 62 -1
92 -4 11 -22 28 -40 37 -35 18 -69 39 -77 47 -3 3 -14 10 -25 16 -19 11 -26
11 -70 1 -36 -9 -40 -9 -54 -8 -8 0 -12 4 -9 7 3 3 -5 34 -17 69 -13 35 -21
66 -17 69 3 3 0 6 -6 6 -7 0 -12 9 -12 20 0 11 -5 20 -11 20 -5 0 -8 4 -5 8 2
4 -7 33 -22 63 l-27 56 22 16 c12 10 27 17 32 17 10 0 14 15 13 50 0 26 -25
114 -37 129 -5 8 -15 37 -21 65 -6 28 -19 68 -28 89 -9 21 -12 37 -6 37 5 0
10 7 10 15 0 8 4 15 9 15 5 0 12 9 16 19 5 16 11 18 35 11 16 -5 40 -16 52
-24 41 -29 80 -20 124 27 22 23 53 60 69 82 16 22 31 42 34 45 12 11 42 70 35
70 -3 0 -2 6 4 13 11 13 8 148 -2 166 -3 4 22 36 55 71 66 70 113 155 118 214
2 17 131 -18 131 -36 0 -5 6 -8 14 -8 8 0 16 -4 18 -9 2 -4 13 -12 26 -15 19
-6 22 -4 22 20 0 35 -21 104 -32 104 -4 0 -8 4 -8 9 0 6 -13 24 -30 42 -16 18
-28 34 -27 36 2 1 32 8 68 15 46 10 86 11 141 5 134 -16 136 0 13 83 -120 81
-232 130 -298 130 -25 0 -27 3 -22 23 18 57 51 87 185 164 128 74 123 79 -72
76 -163 -3 -190 -5 -218 -16 -8 -4 -24 -9 -35 -11 -37 -7 -65 -18 -65 -25 0
-4 -20 -15 -45 -25 -25 -11 -45 -23 -45 -29 0 -5 -6 -4 -14 2 -27 23 10 158
58 206 41 44 76 86 76 94 0 5 6 11 14 14 7 3 23 19 35 36 l22 31 -28 -1 c-15
0 -47 -6 -70 -13z m-571 -2477 c9 -9 15 -19 12 -21 -2 -2 21 -29 51 -58 30
-30 55 -58 55 -62 0 -5 -15 -8 -32 -8 -18 0 -46 -2 -63 -5 -16 -3 -41 -7 -55
-9 -14 -3 -26 -5 -27 -5 -2 -1 -4 0 -5 0 -2 1 -21 -6 -43 -16 -94 -40 -88 -40
-80 2 5 21 9 58 11 82 1 33 8 49 30 67 15 13 32 24 39 24 6 0 24 14 41 31 26
27 30 29 39 13 6 -9 18 -25 27 -35z"/>
</g>
</svg>
