<?xml version="1.0" standalone="no"?>
<!DOCTYPE svg PUBLIC "-//W3C//DTD SVG 20010904//EN"
 "http://www.w3.org/TR/2001/REC-SVG-20010904/DTD/svg10.dtd">
<svg version="1.0" xmlns="http://www.w3.org/2000/svg"
 width="545.000000pt" height="545.000000pt" viewBox="0 0 545.000000 545.000000"
 preserveAspectRatio="xMidYMid meet">
<metadata>
Created by potrace 1.11, written by Peter Selinger 2001-2013
</metadata>
<g transform="translate(0.000000,545.000000) scale(0.100000,-0.100000)"
fill="#000000" stroke="none">
<path d="M3940 5366 c-58 -18 -120 -40 -139 -50 -88 -47 -186 -175 -266 -349
-34 -75 -34 -75 -114 -117 -90 -47 -117 -77 -163 -178 -17 -37 -31 -68 -33
-70 -1 -1 -179 -27 -395 -57 -217 -30 -398 -59 -402 -63 -15 -15 16 -31 103
-53 88 -21 363 -96 389 -105 8 -3 -59 -21 -149 -40 -90 -18 -166 -36 -169 -39
-12 -11 20 -25 203 -86 l190 -63 -53 -15 c-29 -8 -51 -19 -49 -25 2 -6 49 -26
105 -45 97 -33 126 -51 82 -51 -37 0 -142 -41 -199 -77 -134 -86 -322 -273
-502 -500 -101 -126 -129 -190 -146 -336 -10 -89 -21 -137 -43 -188 -36 -80
-37 -95 -9 -118 15 -12 23 -32 26 -66 3 -40 0 -52 -20 -74 -40 -44 -148 -271
-154 -325 l-6 -48 -81 6 c-188 15 -377 -29 -513 -119 -88 -59 -110 -88 -134
-184 -6 -24 -23 -57 -39 -73 -27 -27 -33 -28 -120 -28 -66 0 -102 -5 -128 -17
-52 -24 -139 -117 -193 -204 l-44 -74 -50 3 c-209 11 -237 9 -310 -26 -101
-47 -161 -91 -185 -134 -12 -22 -39 -59 -61 -84 -77 -89 -120 -215 -87 -256
12 -16 17 -14 66 27 62 51 89 58 210 54 l88 -4 95 -62 c116 -77 133 -83 219
-83 88 0 103 -6 191 -81 41 -34 90 -68 109 -76 19 -9 80 -18 135 -20 55 -3
107 -9 116 -14 16 -8 71 -134 85 -194 17 -73 123 -184 223 -234 123 -63 363
-99 527 -80 56 6 113 20 158 39 107 45 116 43 179 -43 154 -208 311 -272 582
-237 39 5 103 23 142 39 86 37 140 39 202 9 60 -30 165 -30 320 -1 164 32 291
95 385 193 l69 71 91 -21 c109 -26 150 -23 278 21 157 53 241 102 348 206 106
101 142 157 165 256 24 105 31 116 134 222 128 131 142 165 148 355 5 125 3
140 -19 205 -30 83 -122 230 -169 268 -85 69 -225 146 -295 161 -19 4 -57 33
-104 81 -46 47 -83 75 -96 75 -12 0 -46 13 -76 29 -31 17 -82 37 -116 45 -68
18 -190 21 -241 6 -19 -5 -36 -8 -38 -7 -1 2 -7 47 -13 100 -10 99 -38 177
-75 207 -9 8 -30 33 -46 56 -24 36 -27 47 -19 69 11 30 13 85 4 110 -4 8 -21
23 -38 32 -17 9 -48 30 -70 47 -38 31 -60 35 -154 24 -22 -3 -27 7 -61 102
-21 58 -50 131 -65 164 -14 32 -26 62 -26 66 0 5 16 18 36 29 35 21 36 23 30
64 -8 51 -24 103 -42 139 -8 14 -14 34 -14 45 0 10 -11 48 -24 85 l-24 67 34
38 33 38 50 -27 c74 -40 98 -37 152 20 61 63 133 168 149 216 8 26 10 66 6
120 l-6 81 60 64 c61 64 96 121 120 194 12 38 13 39 49 32 20 -3 66 -24 102
-46 36 -21 68 -39 72 -39 12 0 8 69 -7 103 -7 18 -31 55 -54 83 l-41 52 62 12
c41 8 98 10 169 5 92 -6 108 -5 108 8 0 16 -191 146 -260 176 -40 18 -74 27
-163 46 l-27 5 20 39 c25 49 70 87 178 147 89 50 115 71 107 83 -2 4 -82 7
-177 5 -199 -2 -254 -13 -366 -75 -40 -22 -77 -37 -84 -33 -17 11 -1 100 28
155 15 27 63 90 106 140 43 49 78 94 78 99 0 17 -41 10 -150 -24z m-75 -1103
c9 -63 15 -83 25 -83 11 0 100 140 100 157 0 7 5 13 11 13 7 0 9 -33 5 -107
-3 -60 -5 -149 -5 -199 1 -108 -9 -135 -84 -236 -59 -81 -109 -128 -135 -128
-10 0 -35 12 -56 26 -49 33 -85 34 -106 3 -8 -13 -27 -37 -41 -53 l-26 -29
-106 92 c-107 93 -131 126 -106 142 20 13 80 29 108 29 13 0 40 10 61 21 48
27 55 59 30 133 -25 69 -25 109 0 164 15 33 24 42 44 42 40 0 56 -10 77 -51
11 -22 21 -39 24 -39 3 0 14 19 26 43 12 23 34 56 49 74 16 17 31 46 35 64 l7
33 29 -31 c18 -21 30 -48 34 -80z m-286 -996 c42 -65 133 -275 152 -354 13
-51 19 -56 51 -44 19 7 32 4 55 -10 38 -24 53 -64 53 -137 0 -50 -3 -58 -35
-88 -38 -35 -115 -64 -171 -64 -18 0 -57 5 -86 11 -45 10 -63 22 -121 78 -63
60 -77 82 -158 244 -108 215 -111 235 -46 294 56 51 123 91 195 114 31 10 60
18 63 18 4 1 25 -28 48 -62z m457 -503 c9 -37 -13 -105 -31 -98 -11 5 -15 24
-15 75 0 66 1 69 20 59 11 -6 23 -22 26 -36z m-665 -1 c13 -21 52 -68 88 -105
l64 -68 -35 0 c-56 0 -183 -27 -234 -50 -62 -27 -78 -26 -70 3 4 12 10 42 12
67 9 81 13 89 57 114 24 14 54 37 67 51 13 14 25 25 26 25 1 0 13 -17 25 -37z"/>
</g>
</svg>
